# xmcd
#
# Track frame offsets:
#	150
#	19912
#	41002
#	72140
#	95184
#	118546
#	140164
#	162149
#	183070
#	210530
#
# Disc length: 3106 seconds
#
# Revision: 3173761481
# Processed by: cddbd v1.5.2PL0 Copyright (c) Steve Scherf et al.
# Submitted via: EZCDAudioConverter 8.0.2.1
#
DISCID=8a0c200a
DTITLE=Song Giang - Vol 04. Ước Mơ Có Nhau
DYEAR=2009
DGENRE=World Pop
TTITLE0=Song Giang - Ước Mơ Có Nhau
TTITLE1=Song Giang - Bên em là biển rộng
TTITLE2=Song Giang, Quang Dũng - Góc phố chiều cô đơn
TTITLE3=Song Giang - Bài hát ru cho anh
TTITLE4=Song Giang - Cứ ngỡ đê mê
TTITLE5=Song Giang - Tình sương khói
TTITLE6=Song Giang - Một mình
TTITLE7=Song Giang - Nhớ nhau làm gì
TTITLE8=Song Giang - Mê khúc
TTITLE9=Song Giang - Trở về
EXTD=
EXTT0=
EXTT1=
EXTT2=
EXTT3=
EXTT4=
EXTT5=
EXTT6=
EXTT7=
EXTT8=
EXTT9=
PLAYORDER=
